<svg width="1009" height="162" viewBox="0 0 1009 162" fill="none" xmlns="http://www.w3.org/2000/svg">
<path d="M44.0001 58.9609H28.6001V133.761C28.6001 136.988 29.3334 139.334 30.8001 140.801C32.2667 142.121 34.7601 142.781 38.2801 142.781H43.7801V157.961L36.7401 158.841C34.3934 159.281 32.5601 159.501 31.2401 159.501C18.9201 159.501 12.7601 151.288 12.7601 134.861V58.9609H7.83168e-05V42.9009H12.7601V10.7809H28.6001V42.9009H44.0001V58.9609ZM73.5935 77.8809H59.0735C59.6602 67.7609 61.5668 60.0609 64.7935 54.7809C71.1002 44.6609 81.8069 39.6009 96.9135 39.6009C108.207 39.6009 117.007 42.4609 123.314 48.1809C129.767 53.9009 132.994 61.7476 132.994 71.7209V137.941C132.994 142.488 134.68 144.761 138.054 144.761C138.787 144.761 140.62 144.468 143.554 143.881V157.961C142.234 158.401 141.574 158.621 141.574 158.621C138.64 159.648 136.22 160.161 134.314 160.161C128.887 160.161 124.927 158.841 122.434 156.201C120.087 153.414 118.62 148.868 118.034 142.561C112.9 149.161 107.694 153.928 102.414 156.861C97.2802 159.794 91.3402 161.261 84.5935 161.261C75.5002 161.261 68.1668 158.181 62.5935 152.021C57.1668 145.861 54.4535 137.721 54.4535 127.601C54.4535 117.628 56.9468 109.561 61.9335 103.401C66.9202 97.2409 73.9602 93.4276 83.0535 91.9609L109.234 88.0009C114.807 87.1209 117.594 82.7209 117.594 74.8009C117.594 62.0409 110.334 55.6609 95.8135 55.6609C88.9202 55.6609 83.7135 57.3476 80.1935 60.7209C76.8202 64.0943 74.6202 69.8143 73.5935 77.8809ZM117.154 118.141V99.2209C115.54 100.688 113.12 101.861 109.894 102.741C106.667 103.621 100.434 104.868 91.1935 106.481C84.0069 107.654 78.8002 109.781 75.5735 112.861C72.4935 115.794 70.9535 120.121 70.9535 125.841C70.9535 132.001 72.4202 136.768 75.3535 140.141C78.2869 143.514 82.4669 145.201 87.8935 145.201C95.8135 145.201 102.634 142.561 108.354 137.281C114.22 131.854 117.154 125.474 117.154 118.141ZM173.706 157.961H158.746V0.000925541H174.586V57.8609C178.692 51.4076 182.946 46.7876 187.346 44.0009C191.746 41.0676 196.879 39.6009 202.746 39.6009C214.332 39.6009 223.646 44.9543 230.686 55.6609C237.872 66.3676 241.466 80.3743 241.466 97.6809C241.466 116.894 237.726 132.294 230.246 143.881C222.766 155.468 212.792 161.261 200.326 161.261C194.166 161.261 189.032 159.868 184.926 157.081C180.819 154.294 177.079 149.601 173.706 143.001V157.961ZM199.886 56.7609C182.579 56.7609 173.926 72.2343 173.926 103.181C173.926 117.701 176.712 128.481 182.286 135.521C186.979 141.388 192.772 144.321 199.666 144.321C207.732 144.321 213.966 140.361 218.366 132.441C222.766 124.521 224.966 113.374 224.966 99.0009C224.966 70.8409 216.606 56.7609 199.886 56.7609ZM276.458 0.000925541V157.961H260.618V0.000925541H276.458ZM364.379 121.881H380.219C378.165 134.348 373.472 144.028 366.139 150.921C358.952 157.814 349.932 161.261 339.079 161.261C325.732 161.261 315.172 156.054 307.399 145.641C299.625 135.081 295.739 120.708 295.739 102.521C295.739 83.3076 299.772 68.0543 307.839 56.7609C315.905 45.3209 326.759 39.6009 340.399 39.6009C355.359 39.6009 366.359 47.0076 373.399 61.8209C376.185 67.5409 378.165 73.6276 379.339 80.0809C380.512 86.5343 381.245 95.4076 381.539 106.701H312.679C313.119 118.141 314.952 126.648 318.179 132.221C322.872 140.288 329.985 144.321 339.519 144.321C345.972 144.321 351.545 142.194 356.239 137.941C360.932 133.688 363.645 128.334 364.379 121.881ZM312.679 91.3009H365.039C364.305 81.0343 362.325 73.1876 359.099 67.7609C354.552 60.4276 348.099 56.7609 339.739 56.7609C332.112 56.7609 325.805 59.9876 320.819 66.4409C315.832 72.7476 313.119 81.0343 312.679 91.3009ZM519.389 75.6809H503.989C503.402 62.9209 496.289 56.5409 482.649 56.5409C476.636 56.5409 471.869 58.0076 468.349 60.9409C464.829 63.8743 463.069 67.8343 463.069 72.8209C463.069 76.9276 464.169 80.0076 466.369 82.0609C468.569 83.9676 473.116 85.9476 480.009 88.0009L496.069 92.8409C505.602 95.7743 512.349 99.5876 516.309 104.281C520.416 108.974 522.469 115.354 522.469 123.421C522.469 135.008 518.949 144.248 511.909 151.141C504.869 157.888 495.336 161.261 483.309 161.261C467.029 161.261 455.809 155.468 449.649 143.881C446.862 138.894 445.176 131.268 444.589 121.001H459.989C460.576 129.214 462.776 135.154 466.589 138.821C470.402 142.488 476.342 144.321 484.409 144.321C491.302 144.321 496.729 142.708 500.689 139.481C504.649 136.254 506.629 131.854 506.629 126.281C506.629 122.028 505.309 118.801 502.669 116.601C500.176 114.254 495.262 111.981 487.929 109.781L469.449 104.281C454.929 99.8809 447.669 90.4209 447.669 75.9009C447.669 64.9009 450.969 56.1009 457.569 49.5009C464.169 42.9009 472.896 39.6009 483.749 39.6009C494.456 39.6009 502.889 42.7543 509.049 49.0609C515.209 55.2209 518.656 64.0943 519.389 75.6809ZM605.004 121.881H620.844C618.79 134.348 614.097 144.028 606.764 150.921C599.577 157.814 590.557 161.261 579.704 161.261C566.357 161.261 555.797 156.054 548.024 145.641C540.25 135.081 536.364 120.708 536.364 102.521C536.364 83.3076 540.397 68.0543 548.464 56.7609C556.53 45.3209 567.384 39.6009 581.024 39.6009C595.984 39.6009 606.984 47.0076 614.024 61.8209C616.81 67.5409 618.79 73.6276 619.964 80.0809C621.137 86.5343 621.87 95.4076 622.164 106.701H553.304C553.744 118.141 555.577 126.648 558.804 132.221C563.497 140.288 570.61 144.321 580.144 144.321C586.597 144.321 592.17 142.194 596.864 137.941C601.557 133.688 604.27 128.334 605.004 121.881ZM553.304 91.3009H605.664C604.93 81.0343 602.95 73.1876 599.724 67.7609C595.177 60.4276 588.724 56.7609 580.364 56.7609C572.737 56.7609 566.43 59.9876 561.444 66.4409C556.457 72.7476 553.744 81.0343 553.304 91.3009ZM689.276 60.0609H683.336C676.296 60.0609 670.502 62.9943 665.956 68.8609C661.409 74.5809 659.136 81.9143 659.136 90.8609V157.961H643.296V42.9009H658.256V62.4809C662.509 54.2676 666.689 48.4009 670.796 44.8809C674.902 41.3609 679.669 39.6009 685.096 39.6009C686.416 39.6009 687.809 39.8209 689.276 40.2609V60.0609ZM739.403 137.281L766.243 42.9009H783.623L747.763 157.961H730.823L696.503 42.9009H714.763L739.403 137.281ZM813.137 42.9009V157.961H797.297V42.9009H813.137ZM813.137 22.0009H797.297V0.000925541H813.137V22.0009ZM911.178 81.6209H895.778C894.458 72.9676 892.038 66.6609 888.518 62.7009C884.998 58.7409 880.085 56.7609 873.778 56.7609C865.565 56.7609 859.112 60.6476 854.418 68.4209C849.872 76.1943 847.598 87.0476 847.598 100.981C847.598 114.914 849.725 125.621 853.978 133.101C858.378 140.581 864.612 144.321 872.678 144.321C884.705 144.321 892.405 135.301 895.778 117.261H911.178C907.365 146.594 894.605 161.261 872.898 161.261C859.992 161.261 849.725 155.981 842.098 145.421C834.472 134.714 830.658 120.414 830.658 102.521C830.658 83.3076 834.692 68.0543 842.758 56.7609C850.825 45.3209 861.678 39.6009 875.318 39.6009C896.438 39.6009 908.392 53.6076 911.178 81.6209ZM991.293 121.881H1007.13C1005.08 134.348 1000.39 144.028 993.053 150.921C985.866 157.814 976.846 161.261 965.993 161.261C952.646 161.261 942.086 156.054 934.313 145.641C926.539 135.081 922.653 120.708 922.653 102.521C922.653 83.3076 926.686 68.0543 934.753 56.7609C942.819 45.3209 953.673 39.6009 967.313 39.6009C982.273 39.6009 993.273 47.0076 1000.31 61.8209C1003.1 67.5409 1005.08 73.6276 1006.25 80.0809C1007.43 86.5343 1008.16 95.4076 1008.45 106.701H939.593C940.033 118.141 941.866 126.648 945.093 132.221C949.786 140.288 956.899 144.321 966.433 144.321C972.886 144.321 978.459 142.194 983.153 137.941C987.846 133.688 990.559 128.334 991.293 121.881ZM939.593 91.3009H991.953C991.219 81.0343 989.239 73.1876 986.013 67.7609C981.466 60.4276 975.013 56.7609 966.653 56.7609C959.026 56.7609 952.719 59.9876 947.733 66.4409C942.746 72.7476 940.033 81.0343 939.593 91.3009Z" fill="black"/>
</svg>
