<?xml version="1.0" encoding="UTF-8"?>
<svg id="Layer_2" data-name="Layer 2" xmlns="http://www.w3.org/2000/svg" viewBox="0 0 399.09 66.63">
  <g id="Layer_1-2" data-name="Layer 1">
    <g>
      <path d="M16.76,24.36h-3.53c-.78,0-1.42.63-1.42,1.42v29.49c0,1.33.3,2.29.91,2.86.6.58,1.64.86,3.09.86h.85c.78,0,1.42.63,1.42,1.42v3.6c0,.71-.53,1.32-1.24,1.41l-1.67.21c-.97.18-1.73.27-2.27.27-5.09,0-7.64-3.39-7.64-10.18v-29.94c0-.78-.63-1.42-1.42-1.42H1.42c-.78,0-1.42-.63-1.42-1.42v-3.8c0-.78.63-1.42,1.42-1.42h2.44c.78,0,1.42-.63,1.42-1.42V5.87c0-.78.63-1.42,1.42-1.42h3.71c.78,0,1.42.63,1.42,1.42v10.44c0,.78.63,1.42,1.42,1.42h3.53c.78,0,1.42.63,1.42,1.42v3.8c0,.78-.63,1.42-1.42,1.42Z"/>
      <path d="M28.33,32.18h-3.25c-.84,0-1.49-.73-1.41-1.57.33-3.42,1.08-6.07,2.24-7.97,2.6-4.18,7.03-6.27,13.27-6.27,4.67,0,8.32,1.18,10.95,3.54,2.64,2.36,3.95,5.61,3.95,9.73v27.36c0,1.88.7,2.82,2.09,2.82.13,0,.34-.02.64-.07.86-.13,1.63.53,1.63,1.4v4.12l-.82.27c-1.21.42-2.21.64-3,.64-2.24,0-3.86-.56-4.86-1.68-.59-.66-1.05-1.59-1.38-2.78-.29-1.05-1.64-1.37-2.39-.57-1.49,1.6-3,2.82-4.51,3.67-2.15,1.21-4.62,1.82-7.41,1.82-3.76,0-6.77-1.27-9.04-3.82-2.27-2.55-3.41-5.91-3.41-10.09s1.03-7.45,3.09-10c2.06-2.54,4.97-4.12,8.73-4.73l10.82-1.64c2.3-.36,3.45-2.18,3.45-5.45,0-5.27-3-7.91-9-7.91-2.85,0-4.99.7-6.41,2.09-1.25,1.23-2.12,3.2-2.6,5.93-.12.67-.71,1.16-1.39,1.16ZM47.54,48.81v-5.39c0-.98-.98-1.68-1.9-1.33-.34.13-.71.25-1.1.36-1.33.36-3.91.88-7.73,1.55-2.97.49-5.11,1.35-6.41,2.59-1.3,1.24-1.95,3.05-1.95,5.41,0,2.55.6,4.52,1.82,5.91,1.21,1.39,2.94,2.09,5.18,2.09,3.27,0,6.1-1.1,8.5-3.32,2.39-2.21,3.59-4.83,3.59-7.86Z"/>
      <path d="M67.57,65.27h-3.35c-.78,0-1.42-.63-1.42-1.42V1.42c0-.78.63-1.42,1.42-1.42h3.71c.78,0,1.42.63,1.42,1.42v18.24c0,1.31,1.61,1.9,2.49.92s1.84-1.83,2.78-2.44c1.82-1.18,3.94-1.77,6.36-1.77,4.79,0,8.65,2.21,11.59,6.64,2.94,4.42,4.41,10.21,4.41,17.36,0,7.94-1.55,14.3-4.64,19.09-3.09,4.79-7.21,7.18-12.36,7.18-2.55,0-4.67-.58-6.36-1.73-.74-.5-1.46-1.16-2.14-1.96-.85-1.01-2.5-.41-2.5.91h0c0,.78-.63,1.42-1.42,1.42ZM79.81,23.45c-7.15,0-10.73,6.39-10.73,19.18,0,6,1.15,10.45,3.45,13.36,1.94,2.42,4.33,3.64,7.18,3.64,3.33,0,5.91-1.64,7.73-4.91,1.82-3.27,2.73-7.88,2.73-13.82,0-11.64-3.45-17.45-10.36-17.45Z"/>
      <path d="M107.71,1.42v62.43c0,.78-.63,1.42-1.42,1.42h-3.71c-.78,0-1.42-.63-1.42-1.42V1.42c0-.78.63-1.42,1.42-1.42h3.71c.78,0,1.42.63,1.42,1.42Z"/>
      <path d="M141.54,50.36h3.62c.91,0,1.59.85,1.39,1.74-.97,4.32-2.78,7.74-5.43,10.26-3,2.85-6.74,4.27-11.23,4.27-5.52,0-9.88-2.17-13.09-6.5-3.21-4.33-4.82-10.26-4.82-17.77,0-7.94,1.67-14.26,5-18.95,3.33-4.7,7.82-7.04,13.45-7.04,6.18,0,10.73,3.06,13.63,9.18,1.15,2.36,1.97,4.88,2.45,7.54.43,2.38.72,5.56.86,9.54.03.8-.62,1.46-1.42,1.46h-25.49c-.82,0-1.47.71-1.42,1.53.27,3.96,1.01,6.97,2.19,9.02,1.94,3.33,4.88,5,8.82,5,2.67,0,4.97-.88,6.91-2.64,1.66-1.51,2.73-3.35,3.19-5.53.14-.65.71-1.1,1.38-1.1ZM120.51,37.72h18.55c.85,0,1.5-.74,1.41-1.59-.38-3.47-1.15-6.18-2.31-8.14-1.88-3.03-4.55-4.54-8-4.54-3.15,0-5.76,1.32-7.82,3.95-1.8,2.3-2.88,5.21-3.25,8.73-.09.84.57,1.59,1.41,1.59Z"/>
      <path d="M204.05,31.27h-3.52c-.71,0-1.3-.52-1.4-1.22-.62-4.46-3.52-6.69-8.71-6.69-2.49,0-4.45.61-5.91,1.82-1.45,1.21-2.18,2.85-2.18,4.91,0,1.7.45,2.95,1.36,3.77.91.82,2.79,1.65,5.64,2.5l6.64,2c3.94,1.21,6.74,2.79,8.41,4.73,1.67,1.94,2.5,4.58,2.5,7.91,0,4.79-1.45,8.59-4.36,11.41-2.91,2.82-6.85,4.23-11.82,4.23-6.73,0-11.36-2.39-13.91-7.18-1.01-1.8-1.67-4.43-1.98-7.89-.08-.83.58-1.56,1.41-1.56h3.56c.71,0,1.31.52,1.4,1.22.36,2.77,1.23,4.81,2.61,6.14,1.58,1.52,4.03,2.27,7.36,2.27,2.85,0,5.09-.67,6.73-2,1.64-1.33,2.45-3.15,2.45-5.45,0-1.76-.53-3.1-1.59-4.04-1.06-.94-3.11-1.86-6.14-2.77l-7.64-2.27c-6-1.82-9-5.73-9-11.73,0-4.54,1.36-8.18,4.09-10.91s6.33-4.09,10.82-4.09,7.91,1.29,10.45,3.86c2.25,2.28,3.63,5.43,4.12,9.44.1.85-.56,1.6-1.41,1.6Z"/>
      <path d="M240.26,50.36h3.62c.91,0,1.59.85,1.39,1.74-.97,4.32-2.78,7.74-5.43,10.26-3,2.85-6.74,4.27-11.23,4.27-5.52,0-9.88-2.17-13.09-6.5-3.21-4.33-4.82-10.26-4.82-17.77,0-7.94,1.67-14.26,5-18.95,3.33-4.7,7.82-7.04,13.45-7.04,6.18,0,10.73,3.06,13.64,9.18,1.15,2.36,1.97,4.88,2.45,7.54.43,2.38.72,5.56.86,9.54.03.8-.62,1.46-1.42,1.46h-25.49c-.82,0-1.47.71-1.42,1.53.27,3.96,1.01,6.97,2.19,9.02,1.94,3.33,4.88,5,8.82,5,2.67,0,4.97-.88,6.91-2.64,1.67-1.51,2.73-3.35,3.19-5.53.14-.65.71-1.1,1.38-1.1ZM219.23,37.72h18.55c.85,0,1.5-.74,1.41-1.59-.38-3.47-1.15-6.18-2.31-8.14-1.88-3.03-4.54-4.54-8-4.54-3.15,0-5.76,1.32-7.82,3.95-1.8,2.3-2.88,5.21-3.25,8.73-.09.84.57,1.59,1.41,1.59Z"/>
      <path d="M270.15,23.4c0,.78-.63,1.42-1.42,1.42h-1.04c-2.91,0-5.3,1.2-7.18,3.59-1.88,2.4-2.82,5.44-2.82,9.14v26.31c0,.78-.63,1.42-1.42,1.42h-3.71c-.78,0-1.42-.63-1.42-1.42V19.14c0-.78.63-1.42,1.42-1.42h3.35c.78,0,1.42.63,1.42,1.42v1.55c0,1.38,1.77,1.94,2.57.81.88-1.24,1.75-2.23,2.61-2.97,1.7-1.45,3.67-2.18,5.91-2.18.13,0,.25,0,.38.01.75.06,1.34.67,1.34,1.42v5.6Z"/>
      <path d="M293.12,51.72l9.38-32.97c.17-.61.73-1.03,1.36-1.03h4.18c.96,0,1.64.93,1.35,1.84l-13.93,44.71c-.18.59-.73,1-1.35,1h-4.9c-.63,0-1.18-.41-1.36-1.01l-13.33-44.71c-.27-.91.41-1.82,1.36-1.82h4.55c.64,0,1.21.44,1.37,1.06l8.59,32.91c.36,1.4,2.34,1.42,2.74.03Z"/>
      <path d="M319.82,9.09h-3.71c-.78,0-1.42-.63-1.42-1.42V1.42c0-.78.63-1.42,1.42-1.42h3.71c.78,0,1.42.63,1.42,1.42v6.26c0,.78-.63,1.42-1.42,1.42ZM321.23,19.14v44.71c0,.78-.63,1.42-1.42,1.42h-3.71c-.78,0-1.42-.63-1.42-1.42V19.14c0-.78.63-1.42,1.42-1.42h3.71c.78,0,1.42.63,1.42,1.42Z"/>
      <path d="M358.27,33.72h-3.59c-.68,0-1.24-.49-1.37-1.16-.57-2.99-1.51-5.21-2.8-6.66-1.46-1.64-3.49-2.45-6.09-2.45-3.39,0-6.04,1.61-7.95,4.82-1.91,3.21-2.86,7.7-2.86,13.45s.89,10.18,2.68,13.27c1.79,3.09,4.35,4.64,7.68,4.64,4.71,0,7.81-3.35,9.31-10.05.15-.66.71-1.13,1.39-1.13h3.56c.88,0,1.54.8,1.4,1.67-1.83,11.01-7.02,16.51-15.57,16.51-5.33,0-9.58-2.2-12.73-6.59-3.15-4.39-4.73-10.29-4.73-17.68,0-7.94,1.67-14.26,5-18.95,3.33-4.7,7.82-7.04,13.45-7.04,8.31,0,13.18,5.24,14.62,15.73.12.86-.54,1.63-1.4,1.63Z"/>
      <path d="M393.24,50.36h3.62c.91,0,1.59.85,1.39,1.74-.97,4.32-2.78,7.74-5.43,10.26-3,2.85-6.74,4.27-11.23,4.27-5.52,0-9.88-2.17-13.09-6.5-3.21-4.33-4.82-10.26-4.82-17.77,0-7.94,1.67-14.26,5-18.95,3.33-4.7,7.82-7.04,13.45-7.04,6.18,0,10.73,3.06,13.64,9.18,1.15,2.36,1.97,4.88,2.45,7.54.43,2.38.72,5.56.86,9.54.03.8-.62,1.46-1.42,1.46h-25.49c-.82,0-1.47.71-1.42,1.53.27,3.96,1,6.97,2.19,9.02,1.94,3.33,4.88,5,8.82,5,2.67,0,4.97-.88,6.91-2.64,1.67-1.51,2.73-3.35,3.19-5.53.14-.65.71-1.1,1.38-1.1ZM372.21,37.72h18.55c.85,0,1.5-.74,1.41-1.59-.38-3.47-1.15-6.18-2.31-8.14-1.88-3.03-4.54-4.54-8-4.54-3.15,0-5.76,1.32-7.82,3.95-1.8,2.3-2.88,5.21-3.25,8.73-.09.84.57,1.59,1.41,1.59Z"/>
    </g>
  </g>
</svg>